<svg width="40" height="40" viewBox="0 0 40 40" fill="none" xmlns="http://www.w3.org/2000/svg">
<path d="M8.99957 23.5862L8.70668 23.8791L7.29279 25.293C7.29275 25.293 7.29272 25.2931 7.29268 25.2931C7.15293 25.4329 7.05776 25.6111 7.0192 25.805C6.98064 25.9989 7.00044 26.2 7.07611 26.3827C7.15178 26.5654 7.27992 26.7215 7.44433 26.8314C7.60868 26.9412 7.8019 26.9999 7.99957 27L8.99957 23.5862ZM8.99957 23.5862V23.172M8.99957 23.5862V23.172M8.99957 23.172V16C8.99957 13.0826 10.1585 10.2847 12.2214 8.22183C14.2843 6.15893 17.0822 5 19.9996 5C22.917 5 25.7148 6.15893 27.7777 8.22183C29.8406 10.2847 30.9996 13.0826 30.9996 16V23.172V23.5862M8.99957 23.172L30.9996 23.5862M30.9996 23.5862L31.2925 23.8791M30.9996 23.5862L31.2925 23.8791M31.2925 23.8791L32.7064 25.293C32.7064 25.293 32.7064 25.2931 32.7065 25.2931C32.8462 25.4329 32.9414 25.6111 32.9799 25.805C33.0185 25.9989 32.9987 26.2 32.923 26.3827C32.8474 26.5654 32.7192 26.7215 32.5548 26.8314C32.3905 26.9412 32.1972 26.9999 31.9996 27C31.9995 27 31.9994 27 31.9994 27M31.2925 23.8791L31.9994 27M31.9994 27H7.99979H31.9994ZM19.9996 35C18.6735 35 17.4017 34.4732 16.464 33.5355C15.7657 32.8372 15.2952 31.9534 15.1006 31H24.8986C24.7039 31.9534 24.2335 32.8372 23.5351 33.5355C22.5974 34.4732 21.3257 35 19.9996 35Z" stroke="#333333" stroke-width="2"/>
<circle cx="34" cy="5" r="3" fill="#5CB270"/>
</svg>

